<?xml version="1.0" encoding="utf-8"?>
<!-- Generator: Adobe Illustrator 26.0.3, SVG Export Plug-In . SVG Version: 6.00 Build 0)  -->
<svg version="1.1" xmlns="http://www.w3.org/2000/svg" xmlns:xlink="http://www.w3.org/1999/xlink" x="0px" y="0px"
	 viewBox="0 0 1000 1000" style="enable-background:new 0 0 1000 1000;" xml:space="preserve">
<style type="text/css">
	.st0{stroke:#FFFFFF;stroke-width:5;stroke-miterlimit:10;}
	.st1{font-family:'Guardians';}
	.st2{font-size:125px;}
	.st3{fill:none;stroke:#FFFFFF;stroke-width:22;stroke-miterlimit:10;}
	.st4{fill:none;}
</style>
<g id="AR">
	<text transform="matrix(1 0 0 1 671.1527 468.8246)" class="st0 st1 st2">ar</text>
</g>
<g id="APE">
	<text transform="matrix(1 0 0 1 462.3933 633.6591)" class="st0 st1 st2">APE</text>
</g>
<g id="Anel">
	<path class="st3" d="M222.12,617.72c-3.96,8.55-55.54,102.44-59.07,110.66c-42.75,99.66-53.12,174.31-20.75,198.52
		c61.64,46.11,254.92-108.11,431.7-344.46S844.12,117.12,782.48,71.01c-56.36-42.15-224.82,86-388.03,288.4"/>
</g>
<g id="Stell">
	<rect x="57.69" y="343.82" class="st4" width="626.77" height="183.52"/>
	<text transform="matrix(1 0 0 1 57.6922 468.8246)" class="st0 st1 st2">StelL</text>
</g>
<g id="Esc">
	<rect x="57.69" y="508.66" class="st4" width="404.7" height="156.45"/>
	<text transform="matrix(1 0 0 1 57.6925 633.6592)" class="st0 st1 st2">ESC</text>
</g>
</svg>
