<svg width="266" height="137" viewBox="0 0 266 137" fill="none" xmlns="http://www.w3.org/2000/svg">
<rect y="0.00012207" width="265.207" height="136.436" fill="#9B9B9B"/>
<rect x="256.775" y="136.436" width="128.004" height="8.43143" transform="rotate(-90 256.775 136.436)" fill="#313131"/>
<rect width="50.6634" height="8.43143" transform="matrix(-0.845183 -0.534478 -0.534478 0.845183 265.01 27.8449)" fill="#313131"/>
<rect x="151.766" width="113.441" height="8.43143" fill="#313131"/>
<rect x="233.014" y="3.06598" width="28.3603" height="13.7969" fill="#313131"/>
<ellipse cx="253.71" cy="16.0964" rx="6.13195" ry="7.66494" fill="#313131"/>
<circle cx="139.118" cy="100.027" r="1.14974" fill="#888686"/>
<circle cx="139.118" cy="116.89" r="1.14974" fill="#888686"/>
<circle cx="139.118" cy="83.1646" r="1.14974" fill="#888686"/>
<circle cx="127.621" cy="43.3069" r="1.14974" fill="#888686"/>
<circle cx="127.621" cy="100.027" r="1.14974" fill="#888686"/>
<circle cx="127.621" cy="116.89" r="1.14974" fill="#888686"/>
<circle cx="127.621" cy="83.1646" r="1.14974" fill="#888686"/>
<circle cx="139.118" cy="63.2357" r="1.14974" fill="#888686"/>
<circle cx="127.621" cy="63.2357" r="1.14974" fill="#888686"/>
<path d="M132.604 27.5938H134.137V136.436H132.604V27.5938Z" fill="#313131"/>
<path d="M57.5066 35.467L23.0456 123.614C22.6525 124.619 23.3939 125.705 24.4733 125.705H117.273C118.12 125.705 118.806 125.019 118.806 124.172V36.0252C118.806 35.1785 118.12 34.4922 117.273 34.4922H58.9343C58.3031 34.4922 57.7364 34.8791 57.5066 35.467Z" fill="#7A7A7A" stroke="#646464" stroke-width="2.29948"/>
<path d="M208.466 35.467L242.927 123.614C243.32 124.619 242.578 125.705 241.499 125.705H148.699C147.852 125.705 147.166 125.019 147.166 124.172V36.0252C147.166 35.1785 147.852 34.4922 148.699 34.4922H207.038C207.669 34.4922 208.236 34.8791 208.466 35.467Z" fill="#7A7A7A" stroke="#646464" stroke-width="2.29948"/>
<circle cx="139.118" cy="43.3069" r="1.14974" fill="#888686"/>
<rect y="0.00012207" width="113.441" height="8.43143" fill="#313131"/>
<rect width="128.004" height="8.43143" transform="matrix(0 1 1 0 0 8.43146)" fill="#313131"/>
<rect y="27.3821" width="50.6634" height="8.43143" transform="rotate(-32.3085 0 27.3821)" fill="#313131"/>
<path d="M113.44 0V16.5563L122.513 27.5938H135.669" stroke="black" stroke-width="2.29948"/>
<path d="M151.766 0V16.5563L142.693 27.5938H129.538" stroke="black" stroke-width="2.29948"/>
<g filter="url(#filter0_d_441_846)">
<circle cx="132.987" cy="12.6471" r="8.04819" fill="#0F92CA"/>
</g>
<rect x="2.29932" y="3.06598" width="28.3603" height="13.7969" fill="#313131"/>
<ellipse cx="10.7306" cy="17.6294" rx="6.13195" ry="7.66494" fill="#313131"/>
<circle cx="4.98205" cy="21.0785" r="2.68273" fill="#707070"/>
<circle cx="30.2765" cy="5.74871" r="2.68273" fill="#707070"/>
<circle cx="2.68273" cy="2.68273" r="2.68273" transform="matrix(-1 0 0 1 259.841 16.8629)" fill="#707070"/>
<circle cx="2.68273" cy="2.68273" r="2.68273" transform="matrix(-1 0 0 1 234.547 1.53296)" fill="#707070"/>
<defs>
<filter id="filter0_d_441_846" x="120.34" y="-2.51532e-05" width="25.2941" height="25.2943" filterUnits="userSpaceOnUse" color-interpolation-filters="sRGB">
<feFlood flood-opacity="0" result="BackgroundImageFix"/>
<feColorMatrix in="SourceAlpha" type="matrix" values="0 0 0 0 0 0 0 0 0 0 0 0 0 0 0 0 0 0 127 0" result="hardAlpha"/>
<feMorphology radius="1.53299" operator="dilate" in="SourceAlpha" result="effect1_dropShadow_441_846"/>
<feOffset/>
<feGaussianBlur stdDeviation="1.53299"/>
<feComposite in2="hardAlpha" operator="out"/>
<feColorMatrix type="matrix" values="0 0 0 0 0.0435485 0 0 0 0 0.735506 0 0 0 0 0.887399 0 0 0 1 0"/>
<feBlend mode="normal" in2="BackgroundImageFix" result="effect1_dropShadow_441_846"/>
<feBlend mode="normal" in="SourceGraphic" in2="effect1_dropShadow_441_846" result="shape"/>
</filter>
</defs>
</svg>
