<svg width="108" height="136" viewBox="0 0 108 136" fill="none" xmlns="http://www.w3.org/2000/svg">
<rect x="1" width="105.776" height="17.6294" fill="#970F0F"/>
<rect x="1" width="105.776" height="17.6294" fill="#970F0F"/>
<rect x="4.06641" y="22.2283" width="98.8777" height="106.543" fill="#AD1212"/>
<rect x="58.4878" y="95.8117" width="44.4566" height="3.83247" fill="#3A0505"/>
<rect x="4.06641" y="95.8117" width="44.4566" height="3.83247" fill="#3A0505"/>
<path d="M58.4878 98.8777L58.4878 21.4618H61.5538L61.5538 98.8777H58.4878Z" fill="#3A0505"/>
<rect x="45.457" y="99.6442" width="77.4159" height="3.06598" transform="rotate(-90 45.457 99.6442)" fill="#3A0505"/>
<rect x="68.4521" y="57.487" width="25.2943" height="3.83247" fill="#3A0505"/>
<rect x="68.4521" y="49.822" width="25.2943" height="3.83247" fill="#3A0505"/>
<rect x="68.4521" y="42.1572" width="25.2943" height="3.83247" fill="#3A0505"/>
<rect x="14.7974" y="57.487" width="24.5278" height="3.83247" fill="#3A0505"/>
<rect x="14.7974" y="49.822" width="24.5278" height="3.83247" fill="#3A0505"/>
<rect x="14.7974" y="42.1572" width="24.5278" height="3.83247" fill="#3A0505"/>
<path d="M103.207 22.2283L106.776 17.6293H1L4.24467 22.2283H103.207Z" fill="#420404" stroke="#420404" stroke-width="0.766494"/>
<circle cx="53.8891" cy="69.751" r="3.83247" fill="#4F0909"/>
<rect x="51.9722" y="71.6672" width="3.83247" height="5.7487" fill="#4F0909"/>
<path d="M25.9112 128.771L19.396 135.286H33.9594L38.9416 128.771H25.9112Z" fill="#580808"/>
<path d="M25.9112 128.771L19.396 135.286H33.9594L38.9416 128.771H25.9112Z" fill="#580808"/>
<path d="M81.4824 128.771L87.9976 135.286H73.4342L68.452 128.771H81.4824Z" fill="#580808"/>
<path d="M81.4824 128.771L87.9976 135.286H73.4342L68.452 128.771H81.4824Z" fill="#580808"/>
</svg>
