<?xml version="1.0" encoding="utf-8"?>
<!-- Generator: Adobe Illustrator 26.0.3, SVG Export Plug-In . SVG Version: 6.00 Build 0)  -->
<svg version="1.1" id="Layer_1" xmlns="http://www.w3.org/2000/svg" xmlns:xlink="http://www.w3.org/1999/xlink" x="0px" y="0px"
	 viewBox="0 0 1000 1000" style="enable-background:new 0 0 1000 1000;" xml:space="preserve">
<style type="text/css">
	.st0{fill:#999897;stroke:#999897;stroke-width:6;stroke-miterlimit:10;}
	.st1{fill:#EFF0A7;stroke:#EFF0A7;stroke-width:6;stroke-miterlimit:10;}
	.st2{fill:#EFF0A7;stroke:#EFF0A7;stroke-miterlimit:10;}
	.st3{fill:#0E112A;stroke:#EAEAEA;stroke-miterlimit:10;}
	.st4{fill:none;stroke:#FFFFFF;stroke-width:7;stroke-miterlimit:10;}
</style>
<rect x="149.3" y="425.4" class="st0" width="55.8" height="149.2"/>
<path class="st1" d="M272.8,500c0,115.7-80.6,213.6-191.6,246.3c28.4,9.3,58.9,14.4,90.7,14.4C324.4,760.8,448,644,448,500
	S324.4,239.2,171.9,239.2c-31.8,0-62.3,5.1-90.7,14.4C192.3,286.4,272.8,384.3,272.8,500z"/>
<path class="st2" d="M784.2,500c0,35.7-0.4,69.9-1.2,101.3C884,556,938.2,500,938.2,500S884,444,783,398.7
	C783.8,430.1,784.2,464.3,784.2,500z"/>
<path class="st3" d="M172.1,500c0,52.1-9,98-22.8,124.9c89.9,20.9,214.6,33.3,328,33.3c101.1,0,222.6-22.1,289.1-49.7V391.5
	c-66.5-27.6-188-49.7-289.1-49.7c-113.5,0-237.9,12.5-328,33.4C163,402,172.1,447.9,172.1,500z"/>
<ellipse class="st1" cx="254.9" cy="500" rx="193.1" ry="21.9"/>
<circle class="st4" cx="648.8" cy="500" r="67.5"/>
</svg>
