<svg width="74" height="62" viewBox="0 0 74 62" fill="none" xmlns="http://www.w3.org/2000/svg">
<path d="M72.7101 47.6534C72.7101 49.2956 71.8607 50.9568 70.1161 52.5664C68.3707 54.1769 65.7957 55.6683 62.5385 56.9394C56.0298 59.4794 46.9772 61.0697 36.9331 61.0697C26.889 61.0697 17.8364 59.4794 11.3277 56.9394C8.07052 55.6683 5.49555 54.1769 3.75005 52.5664C2.00547 50.9568 1.15614 49.2956 1.15614 47.6534C1.15614 46.0111 2.00547 44.35 3.75005 42.7403C5.49555 41.1299 8.07052 39.6384 11.3277 38.3673C17.8364 35.8274 26.889 34.237 36.9331 34.237C46.9772 34.237 56.0298 35.8274 62.5385 38.3673C65.7957 39.6384 68.3707 41.1299 70.1161 42.7403C71.8607 44.35 72.7101 46.0111 72.7101 47.6534Z" fill="#04082B" stroke="black" stroke-width="1.78885"/>
<rect x="30.6724" y="0.248901" width="12.5219" height="47.4045" fill="#04082B"/>
</svg>
