<svg width="86" height="102" viewBox="0 0 86 102" fill="none" xmlns="http://www.w3.org/2000/svg">
<path d="M78.7101 87.6534C78.7101 89.2956 77.8607 90.9568 76.1161 92.5664C74.3707 94.1769 71.7957 95.6683 68.5385 96.9394C62.0298 99.4794 52.9772 101.07 42.9331 101.07C32.889 101.07 23.8364 99.4794 17.3277 96.9394C14.0705 95.6683 11.4955 94.1769 9.75005 92.5664C8.00547 90.9568 7.15614 89.2956 7.15614 87.6534C7.15614 86.0111 8.00547 84.35 9.75005 82.7403C11.4955 81.1299 14.0705 79.6384 17.3277 78.3673C23.8364 75.8274 32.889 74.237 42.9331 74.237C52.9772 74.237 62.0298 75.8274 68.5385 78.3673C71.7957 79.6384 74.3707 81.1299 76.1161 82.7403C77.8607 84.35 78.7101 86.0111 78.7101 87.6534Z" fill="#04082B" stroke="black" stroke-width="1.78885"/>
<rect x="36.6724" y="40.2489" width="12.5219" height="47.4045" fill="#04082B"/>
<path d="M84.5231 26.8327C84.5231 33.6129 80.1222 39.9541 72.5791 44.6686C65.0548 49.3713 54.5766 52.3238 42.9324 52.3238C31.2881 52.3238 20.8099 49.3713 13.2857 44.6686C5.74247 39.9541 1.34164 33.6129 1.34164 26.8327C1.34164 20.0526 5.74247 13.7113 13.2857 8.99683C20.8099 4.29415 31.2881 1.34164 42.9324 1.34164C54.5766 1.34164 65.0548 4.29415 72.5791 8.99683C80.1222 13.7113 84.5231 20.0526 84.5231 26.8327Z" fill="white" stroke="#04082B" stroke-width="2.68327"/>
</svg>
